/vscmnt/brussel_pixiu_data/_data_brussel/112/vsc11236/PredSimResults/SUBJ10opt3D/weighted-trackIG/worker_04.mot
version=1
nRows=5
nColumns=50
inDegrees=yes
endheader
                time	         pelvis_tilt	         pelvis_list	     pelvis_rotation	           pelvis_tx	           pelvis_ty	           pelvis_tz	       hip_flexion_r	     hip_adduction_r	      hip_rotation_r	        knee_angle_r	       ankle_angle_r	         mtp_angle_r	       hip_flexion_l	     hip_adduction_l	      hip_rotation_l	        knee_angle_l	       ankle_angle_l	         mtp_angle_l	    lumbar_extension	      lumbar_bending	     lumbar_rotation	 ercspn_r/activation	 intobl_r/activation	 extobl_r/activation	    abd_r/activation	    add_r/activation	hamstrings_r/activation	bifemsh_r/activation	glut_max_r/activation	iliopsoas_r/activation	rect_fem_r/activation	  vasti_r/activation	gastroc_r/activation	 soleus_r/activation	tib_ant_r/activation	 ercspn_l/activation	 intobl_l/activation	 extobl_l/activation	    abd_l/activation	    add_l/activation	hamstrings_l/activation	bifemsh_l/activation	glut_max_l/activation	iliopsoas_l/activation	rect_fem_l/activation	  vasti_l/activation	gastroc_l/activation	 soleus_l/activation	tib_ant_l/activation	
          0.00000000	         -4.52113696	         -1.04726420	          6.54660525	          0.00000000	          0.82570382	         -0.01456542	         30.07117009	         -1.32771539	         -5.27465052	         -5.49331746	          2.80784577	          0.25409248	        -13.63007175	         -0.33782267	         -0.42285380	         -6.31962983	          9.75944326	         25.21098837	         -5.98141073	         -0.95856503	         -6.67756975	          0.12099096	          0.16342920	          0.01000007	          0.01000012	          0.14293690	          0.12401470	          0.17753679	          0.02789152	          0.11924051	          0.01000008	          0.01000003	          0.01208628	          0.01000005	          0.26623614	          0.04972987	          0.01000000	          0.01000002	          0.07594906	          0.01000012	          0.01155014	          0.25029248	          0.02425379	          0.49807264	          0.01000011	          0.01000001	          0.33804423	          0.27563310	          0.02537714	
          0.01228362	         -4.57259979	         -1.00542690	          6.67777789	          0.01520875	          0.82401975	         -0.01404646	         30.21514133	         -1.18838044	         -5.21952406	         -7.31017628	          2.51183883	          0.25499110	        -13.77178172	         -0.45478911	         -0.78052897	         -7.90075319	          9.30906952	         26.86809382	         -5.73924706	         -0.45941682	         -7.06464693	          0.10675203	          0.13565665	          0.01000008	          0.01000000	          0.23176062	          0.10420127	          0.14736810	          0.06259369	          0.09897720	          0.01000017	          0.01000001	          0.01545530	          0.01204760	          0.28729756	          0.09753234	          0.01000001	          0.01000001	          0.06304255	          0.01000110	          0.01398788	          0.20775875	          0.02537684	          0.45700874	          0.01000016	          0.01000002	          0.31126024	          0.27029246	          0.02106464	
          0.02456725	         -4.61120141	         -0.98982135	          6.78276427	          0.03086972	          0.82253929	         -0.01345583	         30.14074833	         -1.06384977	         -5.02919165	         -9.01580642	          2.16960737	          0.24232460	        -13.78872792	         -0.61700246	         -1.15752643	         -9.76468868	          8.70645340	         28.56529044	         -5.45824506	          0.07617903	         -7.42820246	          0.08861100	          0.11260369	          0.01000004	          0.01000014	          0.19237607	          0.08770612	          0.12232510	          0.10354913	          0.08215737	          0.01000004	          0.01000001	          0.01282889	          0.01000029	          0.35134830	          0.11204486	          0.01000000	          0.01000003	          0.05232933	          0.01838282	          0.01705266	          0.17245304	          0.02106441	          0.37934703	          0.01000006	          0.01000001	          0.27815632	          0.25893808	          0.01748499	
          0.03685087	         -4.63900980	         -0.99524413	          6.85357919	          0.04679865	          0.82137477	         -0.01272245	         29.87677309	         -0.92576867	         -4.88798771	        -10.41152825	          1.72383755	          0.23353771	        -13.63568389	         -0.82243941	         -1.55753763	        -11.95420998	          7.90915822	         30.26122741	         -5.15890264	          0.62685045	         -7.76077216	          0.10234835	          0.09346823	          0.01000005	          0.04894122	          0.17445950	          0.07691168	          0.10153767	          0.11663647	          0.06819584	          0.01000005	          0.01000002	          0.01064881	          0.01000001	          0.40604573	          0.12163261	          0.01000000	          0.01000002	          0.04343667	          0.01525899	          0.01415670	          0.14314704	          0.01748481	          0.31488217	          0.01000011	          0.01000001	          0.23088744	          0.24228450	          0.01451366	
          0.04913449	         -4.65726635	         -1.00049195	          6.88961376	          0.06277405	          0.82062322	         -0.01185722	         29.53376893	         -0.78690420	         -4.84711772	        -11.69010433	          1.28905566	          0.22186620	        -13.27148479	         -1.04903353	         -1.98304238	        -14.50354823	          6.89299291	         31.85573213	         -4.86578072	          1.16957885	         -8.05499050	          0.10593876	          0.07758458	          0.01000004	          0.09111773	          0.20376871	          0.06759575	          0.08428275	          0.11796384	          0.05660688	          0.01000005	          0.01141431	          0.01000005	          0.01000004	          0.43339663	          0.14868558	          0.01000000	          0.01000001	          0.03605520	          0.01266694	          0.01923984	          0.11882121	          0.01451352	          0.26137223	          0.01000006	          0.01000000	          0.19165125	          0.22158225	          0.01204726	
